<svg width="8" height="9" viewBox="0 0 8 9" fill="none" xmlns="http://www.w3.org/2000/svg">
<path fill-rule="evenodd" clip-rule="evenodd" d="M4.09375 0.6875C4.30095 0.6875 4.49966 0.76981 4.64618 0.916323C4.79269 1.06284 4.875 1.26155 4.875 1.46875V3.8125H7.21875C7.42595 3.8125 7.62466 3.89481 7.77118 4.04132C7.91769 4.18784 8 4.38655 8 4.59375C8 4.80095 7.91769 4.99966 7.77118 5.14618C7.62466 5.29269 7.42595 5.375 7.21875 5.375H4.875V7.71875C4.875 7.92595 4.79269 8.12466 4.64618 8.27118C4.49966 8.41769 4.30095 8.5 4.09375 8.5C3.88655 8.5 3.68783 8.41769 3.54132 8.27118C3.39481 8.12466 3.3125 7.92595 3.3125 7.71875V5.375H0.96875C0.76155 5.375 0.562835 5.29269 0.416322 5.14618C0.269809 4.99966 0.1875 4.80095 0.1875 4.59375C0.1875 4.38655 0.269809 4.18784 0.416322 4.04132C0.562835 3.89481 0.76155 3.8125 0.96875 3.8125H3.3125V1.46875C3.3125 1.26155 3.39481 1.06284 3.54132 0.916323C3.68783 0.76981 3.88655 0.6875 4.09375 0.6875Z" fill="#F8F8F7"/>
</svg>
