<svg width="8" height="14" viewBox="0 0 8 14" fill="none" xmlns="http://www.w3.org/2000/svg">
<path id="Vector" fill-rule="evenodd" clip-rule="evenodd" d="M7.83216 13.8418C7.7791 13.892 7.71606 13.9317 7.64665 13.9589C7.57725 13.986 7.50284 14 7.4277 14C7.35255 14 7.27815 13.986 7.20874 13.9589C7.13934 13.9317 7.0763 13.892 7.02323 13.8418L0.167836 7.38104C0.114634 7.33103 0.072425 7.27162 0.043625 7.20621C0.014825 7.1408 6.05781e-07 7.07068 6.11972e-07 6.99986C6.18163e-07 6.92904 0.014825 6.85892 0.043625 6.79351C0.072425 6.7281 0.114634 6.66868 0.167836 6.61867L7.02323 0.157892C7.1305 0.056795 7.27599 -6.32949e-08 7.4277 -5.00324e-08C7.5794 -3.67699e-08 7.72489 0.0567951 7.83217 0.157892C7.93944 0.258988 7.9997 0.396106 7.9997 0.539078C7.9997 0.682051 7.93944 0.819167 7.83217 0.920264L1.3801 6.99986L7.83216 13.0795C7.88537 13.1295 7.92758 13.1889 7.95638 13.2543C7.98518 13.3197 8 13.3898 8 13.4606C8 13.5315 7.98518 13.6016 7.95638 13.667C7.92758 13.7324 7.88537 13.7918 7.83216 13.8418Z" fill="#1A1E29"/>
</svg>
