<svg width="25" height="25" viewBox="0 0 25 25" fill="none" xmlns="http://www.w3.org/2000/svg">
<g clip-path="url(#clip0_256_9668)">
<path d="M12.5 25C13.3288 25 14.1237 24.6708 14.7097 24.0847C15.2958 23.4987 15.625 22.7038 15.625 21.875H9.375C9.375 22.7038 9.70424 23.4987 10.2903 24.0847C10.8763 24.6708 11.6712 25 12.5 25ZM12.5 2.9969L11.2547 3.24846C9.84186 3.53573 8.57178 4.30261 7.65969 5.41917C6.74759 6.53573 6.24957 7.93328 6.25 9.37502C6.25 10.3563 6.04062 12.8078 5.53281 15.2219C5.28281 16.4203 4.94531 17.6688 4.49688 18.75H20.5031C20.0547 17.6688 19.7188 16.4219 19.4672 15.2219C18.9594 12.8078 18.75 10.3563 18.75 9.37502C18.7501 7.93355 18.2519 6.53636 17.3398 5.42013C16.4278 4.30389 15.1579 3.53724 13.7453 3.25002L12.5 2.9969ZM22.2188 18.75C22.5672 19.4485 22.9703 20.0016 23.4375 20.3125H1.5625C2.02969 20.0016 2.43281 19.4485 2.78125 18.75C4.1875 15.9375 4.6875 10.75 4.6875 9.37502C4.6875 5.59377 7.375 2.43752 10.9453 1.71721C10.9235 1.49995 10.9475 1.28053 11.0157 1.07311C11.0839 0.865681 11.1948 0.674852 11.3413 0.512928C11.4878 0.351003 11.6666 0.221578 11.8661 0.133C12.0657 0.044422 12.2816 -0.00134277 12.5 -0.00134277C12.7184 -0.00134277 12.9343 0.044422 13.1339 0.133C13.3334 0.221578 13.5122 0.351003 13.6587 0.512928C13.8052 0.674852 13.9161 0.865681 13.9843 1.07311C14.0525 1.28053 14.0765 1.49995 14.0547 1.71721C15.821 2.07589 17.409 3.03427 18.5495 4.42992C19.69 5.82557 20.3129 7.57264 20.3125 9.37502C20.3125 10.75 20.8125 15.9375 22.2188 18.75Z" fill="#F8F8F7"/>
</g>
<defs>
<clipPath id="clip0_256_9668">
<rect width="25" height="25" fill="white"/>
</clipPath>
</defs>
</svg>
