<svg width="25" height="21" viewBox="0 0 25 21" fill="none" xmlns="http://www.w3.org/2000/svg">
<path d="M10.1562 0C9.53465 0 8.93851 0.24693 8.49897 0.686468C8.05943 1.12601 7.8125 1.72215 7.8125 2.34375V3.125H2.34375C1.72215 3.125 1.12601 3.37193 0.686468 3.81147C0.24693 4.25101 0 4.84715 0 5.46875L0 17.9687C0 18.5903 0.24693 19.1865 0.686468 19.626C1.12601 20.0656 1.72215 20.3125 2.34375 20.3125H22.6562C23.2779 20.3125 23.874 20.0656 24.3135 19.626C24.7531 19.1865 25 18.5903 25 17.9687V5.46875C25 4.84715 24.7531 4.25101 24.3135 3.81147C23.874 3.37193 23.2779 3.125 22.6562 3.125H17.1875V2.34375C17.1875 1.72215 16.9406 1.12601 16.501 0.686468C16.0615 0.24693 15.4654 0 14.8438 0H10.1562ZM10.1562 1.5625H14.8438C15.051 1.5625 15.2497 1.64481 15.3962 1.79132C15.5427 1.93784 15.625 2.13655 15.625 2.34375V3.125H9.375V2.34375C9.375 2.13655 9.45731 1.93784 9.60382 1.79132C9.75034 1.64481 9.94905 1.5625 10.1562 1.5625ZM13.1031 12.3656L23.4375 9.61094V17.9687C23.4375 18.1759 23.3552 18.3747 23.2087 18.5212C23.0622 18.6677 22.8635 18.75 22.6562 18.75H2.34375C2.13655 18.75 1.93784 18.6677 1.79132 18.5212C1.64481 18.3747 1.5625 18.1759 1.5625 17.9687V9.60937L11.8969 12.3656C12.2921 12.4709 12.7079 12.4709 13.1031 12.3656ZM2.34375 4.6875H22.6562C22.8635 4.6875 23.0622 4.76981 23.2087 4.91632C23.3552 5.06284 23.4375 5.26155 23.4375 5.46875V7.99375L12.7016 10.8562C12.5695 10.8915 12.4305 10.8915 12.2984 10.8562L1.5625 7.99375V5.46875C1.5625 5.26155 1.64481 5.06284 1.79132 4.91632C1.93784 4.76981 2.13655 4.6875 2.34375 4.6875Z" fill="#F8F8F7"/>
</svg>
