<svg width="23" height="22" viewBox="0 0 23 22" fill="none" xmlns="http://www.w3.org/2000/svg">
<g id="ClockFill" clip-path="url(#clip0_666_2441)">
<path id="Vector" d="M22.0163 10.8197C22.0163 13.6892 20.8764 16.4413 18.8473 18.4703C16.8182 20.4994 14.0662 21.6393 11.1966 21.6393C8.32707 21.6393 5.57504 20.4994 3.54596 18.4703C1.51688 16.4413 0.376953 13.6892 0.376953 10.8197C0.376953 7.95012 1.51688 5.19809 3.54596 3.16901C5.57504 1.13993 8.32707 0 11.1966 0C14.0662 0 16.8182 1.13993 18.8473 3.16901C20.8764 5.19809 22.0163 7.95012 22.0163 10.8197ZM11.1966 4.73361C11.1966 4.55426 11.1254 4.38226 10.9986 4.25544C10.8717 4.12862 10.6997 4.05738 10.5204 4.05738C10.341 4.05738 10.169 4.12862 10.0422 4.25544C9.91541 4.38226 9.84417 4.55426 9.84417 4.73361V12.1721C9.8442 12.2913 9.87575 12.4084 9.9356 12.5115C9.99545 12.6146 10.0815 12.7 10.185 12.7591L14.9186 15.464C15.0739 15.548 15.256 15.5678 15.4257 15.5194C15.5955 15.4709 15.7396 15.3579 15.8272 15.2046C15.9148 15.0513 15.939 14.8698 15.8946 14.6989C15.8501 14.528 15.7406 14.3813 15.5894 14.2901L11.1966 11.7799V4.73361Z" fill="#1A1E29"/>
</g>
<defs>
<clipPath id="clip0_666_2441">
<rect width="21.6393" height="21.6393" fill="white" transform="translate(0.376953)"/>
</clipPath>
</defs>
</svg>
