<svg width="25" height="19" viewBox="0 0 25 19" fill="none" xmlns="http://www.w3.org/2000/svg">
<path d="M12.5 2.50195C12.7072 2.50195 12.9059 2.58426 13.0524 2.73078C13.1989 2.87729 13.2812 3.076 13.2812 3.2832V5.62695C13.2812 5.83415 13.1989 6.03287 13.0524 6.17938C12.9059 6.32589 12.7072 6.4082 12.5 6.4082C12.2928 6.4082 12.0941 6.32589 11.9476 6.17938C11.8011 6.03287 11.7188 5.83415 11.7188 5.62695V3.2832C11.7188 3.076 11.8011 2.87729 11.9476 2.73078C12.0941 2.58426 12.2928 2.50195 12.5 2.50195ZM5.83125 5.2082C5.97776 5.06174 6.17643 4.97946 6.38359 4.97946C6.59075 4.97946 6.78943 5.06174 6.93594 5.2082L8.36563 6.63633C8.43826 6.70897 8.49588 6.7952 8.53519 6.8901C8.5745 6.98501 8.59474 7.08673 8.59474 7.18945C8.59474 7.29218 8.5745 7.3939 8.53519 7.4888C8.49588 7.58371 8.43826 7.66994 8.36563 7.74258C8.29299 7.81522 8.20675 7.87284 8.11185 7.91215C8.01694 7.95146 7.91523 7.97169 7.8125 7.97169C7.70977 7.97169 7.60806 7.95146 7.51315 7.91215C7.41825 7.87284 7.33201 7.81522 7.25937 7.74258L5.83125 6.31289C5.68479 6.16638 5.60251 5.96771 5.60251 5.76055C5.60251 5.55339 5.68479 5.35471 5.83125 5.2082ZM3.125 11.877C3.125 11.6698 3.20731 11.471 3.35382 11.3245C3.50034 11.178 3.69905 11.0957 3.90625 11.0957H6.38437C6.59158 11.0957 6.79029 11.178 6.9368 11.3245C7.08331 11.471 7.16563 11.6698 7.16563 11.877C7.16563 12.0842 7.08331 12.2829 6.9368 12.4294C6.79029 12.5759 6.59158 12.6582 6.38437 12.6582H3.90625C3.69905 12.6582 3.50034 12.5759 3.35382 12.4294C3.20731 12.2829 3.125 12.0842 3.125 11.877ZM17.9688 11.877C17.9688 11.6698 18.0511 11.471 18.1976 11.3245C18.3441 11.178 18.5428 11.0957 18.75 11.0957H21.0938C21.301 11.0957 21.4997 11.178 21.6462 11.3245C21.7927 11.471 21.875 11.6698 21.875 11.877C21.875 12.0842 21.7927 12.2829 21.6462 12.4294C21.4997 12.5759 21.301 12.6582 21.0938 12.6582H18.75C18.5428 12.6582 18.3441 12.5759 18.1976 12.4294C18.0511 12.2829 17.9688 12.0842 17.9688 11.877ZM19.1469 5.24258C19.0385 5.13523 18.8937 5.07246 18.7412 5.06667C18.5888 5.06089 18.4397 5.11251 18.3234 5.21133L11.7922 10.7988C11.64 10.927 11.5164 11.0858 11.4295 11.2647C11.3425 11.4437 11.2941 11.639 11.2873 11.8378C11.2805 12.0367 11.3156 12.2348 11.3902 12.4192C11.4648 12.6037 11.5773 12.7705 11.7204 12.9087C11.8635 13.047 12.034 13.1537 12.2209 13.2219C12.4078 13.2901 12.607 13.3183 12.8055 13.3047C13.0041 13.2911 13.1975 13.236 13.3734 13.143C13.5493 13.0499 13.7037 12.9209 13.8266 12.7645L19.1922 6.05039C19.2852 5.9334 19.332 5.78631 19.3236 5.63708C19.3153 5.48785 19.2524 5.34689 19.1469 5.24102V5.24258Z" fill="#F8F8F7"/>
<path fill-rule="evenodd" clip-rule="evenodd" d="M5.01386e-06 12.4888C0.0016384 10.6697 0.400275 8.87293 1.16809 7.22385C1.9359 5.57478 3.05438 4.11315 4.44545 2.94101C5.83652 1.76888 7.46666 0.914473 9.22206 0.437451C10.9775 -0.0395714 12.8158 -0.127717 14.6088 0.179168C16.4018 0.486053 18.1062 1.18057 19.603 2.21424C21.0999 3.24791 22.3531 4.59582 23.2751 6.16387C24.1972 7.73192 24.7659 9.48233 24.9416 11.2929C25.1172 13.1034 24.8956 14.9305 24.2922 16.6466C23.6016 18.6044 21.4094 19.1497 19.7109 18.5997C17.6703 17.9388 14.8047 17.1763 12.5 17.1763C10.1969 17.1763 7.32813 17.9388 5.28907 18.5997C3.59063 19.1497 1.39844 18.6044 0.707818 16.6466C0.238081 15.3107 -0.00126324 13.9048 5.01386e-06 12.4888ZM12.5 1.55128C10.7506 1.55082 9.02658 1.97002 7.47268 2.77367C5.91878 3.57732 4.58032 4.74199 3.56964 6.16992C2.55896 7.59786 1.90554 9.24739 1.66423 10.9801C1.42292 12.7128 1.60076 14.4781 2.18282 16.1278C2.50001 17.0263 3.625 17.4966 4.80782 17.1122C6.87032 16.4466 9.93438 15.6138 12.5 15.6138C15.0656 15.6138 18.1313 16.445 20.1922 17.1138C21.375 17.4966 22.5 17.0263 22.8172 16.1278C23.3992 14.4781 23.5771 12.7128 23.3358 10.9801C23.0945 9.24739 22.4411 7.59786 21.4304 6.16992C20.4197 4.74199 19.0812 3.57732 17.5273 2.77367C15.9734 1.97002 14.2494 1.55082 12.5 1.55128Z" fill="#F8F8F7"/>
</svg>
