<svg width="482" height="141" viewBox="0 0 482 141" fill="none" xmlns="http://www.w3.org/2000/svg">
<path d="M24.4524 59.8799C18.5832 54.5697 14.5586 49.6507 13.7761 41.3221C12.0433 22.4288 25.5145 11.5848 41.6129 5.38019C32.6134 13.2058 24.173 18.1806 21.7135 31.037C16.7945 56.6938 40.8862 68.0968 39.7124 70.2209C39.3211 70.4445 37.9237 69.5501 37.0852 69.0471C32.6134 66.4758 28.3093 63.4015 24.4524 59.8799Z" fill="#1A1E29"/>
<path d="M70.1207 3.75903C72.9714 5.54774 76.2135 8.1749 78.2817 10.8021C82.7534 16.3918 84.1509 24.1615 84.1509 17.0626C84.1509 15.2738 83.3124 12.7026 82.977 10.858C86.219 14.2677 90.1319 18.3482 92.0882 22.5964C91.9765 22.5405 90.8026 22.3169 90.7467 22.3728C90.579 22.4846 90.6349 22.6523 90.6349 22.8759C90.6349 23.5466 95.0508 27.4594 95.6657 34.8379C97.2308 54.0106 77.7227 61.1654 74.7042 74.413C73.6981 78.8848 75.0955 86.0397 70.4002 88.555C67.0463 90.3437 44.408 89.5053 38.9859 89.3935C36.8619 87.1576 36.8619 87.1576 34.6819 84.8658C37.1413 73.2951 31.1044 68.0967 24.3968 59.8239C28.2537 63.3454 32.5578 66.4198 37.0854 69.0469C37.9239 69.55 39.3213 70.4444 39.7126 70.2208C40.8864 68.1526 16.7948 56.7495 21.7137 31.0368C24.1732 18.1805 32.6137 13.2056 41.6131 5.38005C51.3392 1.74673 60.0033 1.29955 70.1207 3.75903Z" fill="#A8A8A8"/>
<path d="M66.0404 10.6903C72.4127 10.2431 78.9527 17.9569 82.6978 22.5405C83.8157 24.7205 85.7721 27.0682 86.2752 29.2482C90.8029 38.9743 86.387 45.4025 75.9901 47.2471C80.1824 36.4589 72.3568 26.6769 62.463 22.4287C58.0471 18.46 59.5564 11.1375 66.0404 10.6903Z" fill="#F8F8F7"/>
<path d="M70.1202 3.75911C60.0028 1.29963 51.2829 1.69091 41.6127 5.43603C25.5143 11.6406 12.0431 22.4288 13.7759 41.3779C14.5584 49.6507 18.583 54.6255 24.4522 59.9358C31.1599 68.2086 37.1409 73.3511 34.7373 84.9777C36.8614 87.2136 36.8614 87.2136 39.0414 89.5054C44.5193 89.6172 67.1018 90.4556 70.4556 88.6669C75.151 86.1516 73.7535 78.9967 74.7597 74.5249C77.7781 61.2773 97.2863 54.1225 95.7211 34.9497C95.1063 27.6272 90.6904 23.6585 90.6904 22.9877C90.6904 22.7642 90.6345 22.5406 90.8022 22.4847C90.8581 22.4288 92.0319 22.6524 92.1437 22.7083C93.9883 23.4908 97.4539 32.658 97.7893 36.8502C98.8514 49.1476 93.8765 56.1907 85.2125 64.0722C87.6719 65.5814 87.6719 65.5814 90.1314 67.0906C97.7334 60.6065 105.335 70.2209 101.534 75.9783C98.4601 80.6736 88.8458 79.1085 90.2432 71.1711C86.4422 69.047 86.4422 69.047 82.5853 66.867C82.3058 66.9229 79.6227 70.668 79.3433 71.1711C75.7099 77.767 77.4987 84.0834 74.5361 90.0085C73.9212 93.1946 78.2253 104.821 65.3131 110.746C72.8033 115.777 71.2941 121.702 71.9089 121.926C73.53 121.646 81.0202 118.516 81.5233 118.572C82.8089 118.684 83.7032 120.64 83.0884 122.261C82.4176 124.05 71.1823 131.428 70.3997 131.596C69.0582 131.875 67.0459 131.037 66.3192 129.807C64.1951 126.286 69.4495 119.243 63.4685 115.665C57.3757 111.976 60.5059 119.354 53.8542 118.181C50.2767 117.566 48.9911 113.094 48.5998 112.926C46.5875 112.144 44.3516 114.324 42.9542 114.827C41.3332 115.386 37.9794 115.777 37.8117 116.168C38.8737 118.74 40.1593 130.422 34.7932 128.857C33.843 128.577 26.5763 115.553 26.5204 114.324C26.2968 106.834 40.0476 111.808 44.128 111.193C37.7558 103.368 38.2029 102.418 36.5819 92.5797C26.1292 83.4126 40.2711 81.7916 24.564 63.7927C21.8251 67.1465 19.0302 71.9537 14.2231 72.0655C14.6143 80.6177 3.5467 78.1023 1.03133 74.3572C-1.20456 71.0593 -0.0307207 62.3394 6.78873 62.9542C7.68309 63.0101 12.1549 64.687 12.8815 65.246C14.1672 66.2522 14.6702 68.4321 15.3969 68.3762C18.4712 64.9665 18.4712 64.9665 21.6015 61.5568C21.6574 60.0476 13.1051 57.5881 10.9251 45.2348C8.40975 31.2046 13.8877 21.2549 24.2287 12.2555C34.6814 3.14424 47.2024 -1.21574 61.1208 0.293485C62.9095 0.40528 72.1884 2.13809 70.1202 3.75911Z" fill="#1A1E29"/>
<path d="M69.617 92.1325C70.5672 92.0766 71.0144 92.971 70.7908 93.9212C70.2318 96.213 60.1703 96.3248 59.4996 94.9833C58.4375 92.9151 62.2944 93.6417 65.4806 93.1945C67.0457 92.971 69.3934 92.1884 69.617 92.1325Z" fill="#D1D3CD"/>
<path d="M69.3932 102.026C68.8343 104.709 60.4497 106.331 60.0584 105.268C60.0584 105.213 60.3379 103.927 60.3938 103.927C60.7292 103.592 66.0394 103.536 69.3932 102.026Z" fill="#F3EFDB"/>
<path d="M70.0082 98.0017C70.7348 98.0017 69.2815 98.952 69.1697 99.0638C65.4805 101.244 59.4436 100.852 61.0087 99.9022C64.139 100.014 67.1574 99.2314 70.0082 98.0017Z" fill="#FDFCFA"/>
<path d="M85.8835 14.2678C81.9148 8.73403 75.9338 4.82122 69.2261 3.59149C68.1641 3.3679 67.7169 4.98892 68.779 5.21251C75.0394 6.38635 80.741 9.96377 84.4302 15.1622C85.045 16.0007 86.4984 15.1622 85.8835 14.2678Z" fill="#F8F8F7"/>
<path d="M74.8153 8.11913C78.6722 11.0817 81.6347 15.1063 83.3116 19.7457C83.7029 20.8078 85.1003 20.3606 84.9326 19.2986C84.4296 15.8888 82.9762 12.7027 80.7963 10.0196C80.4609 10.4668 80.1255 10.914 79.7901 11.3612C81.7465 12.5909 83.0321 14.6032 83.3675 16.8391C83.4234 17.2863 83.9824 17.5098 84.3737 17.3981C84.8767 17.2863 85.0444 16.8391 84.9326 16.3919C84.5414 13.7088 82.8645 11.3053 80.5727 9.90783C79.7342 9.40476 78.9516 10.5227 79.5665 11.2494C81.5788 13.6529 82.8644 16.6155 83.3116 19.7457C83.8706 19.578 84.3737 19.4663 84.9326 19.2986C83.1439 14.4355 80.0696 10.1314 75.9891 6.94528C75.6537 6.6658 75.1506 6.6099 74.8153 6.94528C74.4799 7.22477 74.424 7.83964 74.8153 8.11913Z" fill="#F8F8F7"/>
<path d="M67.2606 56.2976C63.6831 56.4653 65.8631 52.6643 65.0806 51.211C63.236 47.7453 54.5719 43.9443 47.0817 48.4161C40.4299 52.3848 45.5725 55.5709 42.1068 56.1299C39.312 56.5771 38.1381 51.6581 36.7966 49.8135C38.3058 50.4843 38.3058 50.4843 39.815 51.1551C46.0755 39.9197 62.9565 39.5843 68.8816 51.1551C75.5892 46.5715 70.7821 51.0992 70.2231 52.1053C69.6641 53.1115 69.4964 56.2417 67.2606 56.2976Z" fill="#1A1E29"/>
<path d="M66.0958 32.099C73.4183 30.8693 72.9711 42.999 67.3255 36.2354C62.2388 41.322 61.3445 32.8816 66.0958 32.099Z" fill="#1A1E29"/>
<path d="M40.7186 32.0989C47.3145 31.0928 47.9853 41.3778 41.7807 36.4589C40.2155 36.2912 39.6007 38.7507 38.0356 38.3035C36.0233 37.8004 37.7002 32.5461 40.7186 32.0989Z" fill="#1A1E29"/>
<path d="M128.238 15.1875H150.301V20.625H133.613V30.5625H150.301V35.9375H133.613V49.625H150.301V55H128.238V15.1875ZM157.582 15.1875H166.207C170.499 15.1875 173.988 16.2604 176.676 18.4062C179.384 20.5312 180.738 23.2604 180.738 26.5938C180.738 29.2604 179.863 31.6146 178.113 33.6562C176.363 35.6979 173.634 37.1354 169.926 37.9688L181.519 55H175.301L164.238 38.625H163.019V55H157.582V15.1875ZM163.019 20V33.875C171.04 34.0417 175.051 31.7188 175.051 26.9062C175.051 25.2188 174.582 23.8438 173.644 22.7812C172.707 21.6979 171.457 20.9688 169.894 20.5938C168.332 20.1979 166.04 20 163.019 20ZM189.582 15.1875H198.207C202.499 15.1875 205.988 16.2604 208.676 18.4062C211.384 20.5312 212.738 23.2604 212.738 26.5938C212.738 29.2604 211.863 31.6146 210.113 33.6562C208.363 35.6979 205.634 37.1354 201.926 37.9688L213.519 55H207.301L196.238 38.625H195.019V55H189.582V15.1875ZM195.019 20V33.875C203.04 34.0417 207.051 31.7188 207.051 26.9062C207.051 25.2188 206.582 23.8438 205.644 22.7812C204.707 21.6979 203.457 20.9688 201.894 20.5938C200.332 20.1979 198.04 20 195.019 20ZM219.082 34.8438C219.082 29.0938 221.249 24.1667 225.582 20.0625C229.915 15.9583 235.124 13.9062 241.207 13.9062C247.144 13.9062 252.259 15.9792 256.551 20.125C260.842 24.25 262.988 29.1562 262.988 34.8438C262.988 40.8646 260.863 45.9583 256.613 50.125C252.384 54.2708 247.186 56.3438 241.019 56.3438C234.936 56.3438 229.759 54.25 225.488 50.0625C221.217 45.875 219.082 40.8021 219.082 34.8438ZM257.207 35.0938C257.207 30.6979 255.624 27 252.457 24C249.29 20.9792 245.394 19.4688 240.769 19.4688C236.374 19.4688 232.603 21 229.457 24.0625C226.332 27.125 224.769 30.8021 224.769 35.0938C224.769 39.4479 226.374 43.1354 229.582 46.1562C232.811 49.1562 236.759 50.6562 241.426 50.6562C245.717 50.6562 249.415 49.125 252.519 46.0625C255.644 42.9792 257.207 39.3229 257.207 35.0938ZM270.957 15.1875H279.582C283.874 15.1875 287.363 16.2604 290.051 18.4062C292.759 20.5312 294.113 23.2604 294.113 26.5938C294.113 29.2604 293.238 31.6146 291.488 33.6562C289.738 35.6979 287.009 37.1354 283.301 37.9688L294.894 55H288.676L277.613 38.625H276.394V55H270.957V15.1875ZM276.394 20V33.875C284.415 34.0417 288.426 31.7188 288.426 26.9062C288.426 25.2188 287.957 23.8438 287.019 22.7812C286.082 21.6979 284.832 20.9688 283.269 20.5938C281.707 20.1979 279.415 20 276.394 20ZM343.613 13.9688V42.5312H347.457V47.1875H343.613V55H338.738V47.1875H316.426L343.613 13.9688ZM338.613 26.6562L325.957 42.5312H338.738V26.6562H338.613ZM368.801 13.8438C373.176 13.8438 376.728 15.8125 379.457 19.75C382.207 23.6667 383.582 28.7604 383.582 35.0312C383.582 41.5312 382.103 46.7083 379.144 50.5625C376.207 54.4167 372.676 56.3438 368.551 56.3438C364.259 56.3438 360.686 54.375 357.832 50.4375C354.999 46.4792 353.582 41.4479 353.582 35.3438C353.582 28.5729 355.04 23.3021 357.957 19.5312C360.894 15.7396 364.405 13.8438 368.488 13.8438H368.801ZM377.894 34.9688C377.894 30.4688 377.009 26.7708 375.238 23.875C373.467 20.9792 371.238 19.5312 368.551 19.5312C365.78 19.5312 363.519 20.9688 361.769 23.8438C360.019 26.6979 359.144 30.4688 359.144 35.1562C359.144 39.8021 360.03 43.5417 361.801 46.375C363.572 49.1875 365.863 50.5938 368.676 50.5938C371.384 50.5938 373.592 49.1562 375.301 46.2812C377.03 43.3854 377.894 39.6146 377.894 34.9688ZM414.238 13.9688V42.5312H418.082V47.1875H414.238V55H409.363V47.1875H387.051L414.238 13.9688ZM409.238 26.6562L396.582 42.5312H409.363V26.6562H409.238ZM424.269 37.5312C424.269 36.3438 424.676 35.3438 425.488 34.5312C426.322 33.7188 427.322 33.3125 428.488 33.3125C429.655 33.3125 430.644 33.7292 431.457 34.5625C432.29 35.375 432.707 36.3646 432.707 37.5312C432.707 38.6979 432.301 39.6979 431.488 40.5312C430.676 41.3438 429.676 41.75 428.488 41.75C427.322 41.75 426.322 41.3438 425.488 40.5312C424.676 39.6979 424.269 38.6979 424.269 37.5312ZM424.269 51.2812C424.269 50.0938 424.676 49.0833 425.488 48.25C426.322 47.4167 427.322 47 428.488 47C429.634 47 430.624 47.4271 431.457 48.2812C432.29 49.1146 432.707 50.1146 432.707 51.2812C432.707 52.4271 432.29 53.4167 431.457 54.25C430.624 55.0833 429.634 55.5 428.488 55.5C427.322 55.5 426.322 55.0938 425.488 54.2812C424.676 53.4479 424.269 52.4479 424.269 51.2812ZM128.598 77.1406H134.598C137.988 77.1406 140.723 77.9375 142.801 79.5312C144.879 81.125 145.918 83.1953 145.918 85.7422C145.918 88.3047 144.816 90.4531 142.613 92.1875C140.426 93.9219 137.098 94.7656 132.629 94.7188V107H128.598V77.1406ZM132.629 80.7031V91.1562C135.691 91.125 137.957 90.6953 139.426 89.8672C140.91 89.0234 141.652 87.6797 141.652 85.8359C141.652 84.4453 141.09 83.2422 139.965 82.2266C138.855 81.2109 136.41 80.7031 132.629 80.7031ZM164.621 87.6641H168.699V107H164.621V103.156C162.637 106.078 160.176 107.539 157.238 107.539C154.691 107.539 152.512 106.539 150.699 104.539C148.902 102.539 148.004 100.109 148.004 97.25C148.004 94.5469 148.91 92.1875 150.723 90.1719C152.551 88.1406 154.691 87.125 157.144 87.125C158.66 87.125 160.098 87.5391 161.457 88.3672C162.816 89.1953 163.871 90.2734 164.621 91.6016V87.6641ZM165.16 97.3906C165.16 95.625 164.527 94.1172 163.262 92.8672C161.996 91.6016 160.48 90.9688 158.715 90.9688C156.996 90.9688 155.496 91.5938 154.215 92.8438C152.934 94.0938 152.293 95.5625 152.293 97.25C152.293 99.0781 152.918 100.633 154.168 101.914C155.418 103.195 156.934 103.836 158.715 103.836C160.48 103.836 161.996 103.203 163.262 101.938C164.527 100.656 165.16 99.1406 165.16 97.3906ZM190.918 87.6641H194.902V106.227C194.902 108.961 193.957 111.281 192.066 113.188C190.191 115.109 187.918 116.07 185.246 116.07C183.215 116.07 181.348 115.516 179.644 114.406C177.941 113.312 176.691 111.641 175.894 109.391H180.113C181.379 111.484 183.137 112.531 185.387 112.531C186.918 112.531 188.223 111.977 189.301 110.867C190.379 109.773 190.918 108.453 190.918 106.906V103.25C188.949 106.109 186.465 107.539 183.465 107.539C180.996 107.539 178.84 106.523 176.996 104.492C175.168 102.445 174.254 100.031 174.254 97.25C174.254 94.4688 175.144 92.0859 176.926 90.1016C178.723 88.1172 180.855 87.125 183.324 87.125C186.512 87.125 189.043 88.6641 190.918 91.7422V87.6641ZM191.48 97.2969C191.48 95.4844 190.848 93.9688 189.582 92.75C188.332 91.5312 186.777 90.9219 184.918 90.9219C183.215 90.9219 181.715 91.5547 180.418 92.8203C179.121 94.0859 178.473 95.5469 178.473 97.2031C178.473 99 179.113 100.547 180.394 101.844C181.676 103.141 183.199 103.789 184.965 103.789C186.762 103.789 188.293 103.156 189.559 101.891C190.84 100.625 191.48 99.0938 191.48 97.2969ZM219.629 98.1172H203.129C203.488 100.102 204.301 101.555 205.566 102.477C206.848 103.383 208.238 103.836 209.738 103.836C212.051 103.836 213.988 102.875 215.551 100.953L218.527 103.203C216.293 106.094 213.301 107.539 209.551 107.539C206.676 107.539 204.269 106.555 202.332 104.586C200.394 102.617 199.426 100.172 199.426 97.25C199.426 94.5156 200.402 92.1484 202.355 90.1484C204.324 88.1328 206.723 87.125 209.551 87.125C212.332 87.125 214.715 88.1484 216.699 90.1953C218.684 92.2266 219.66 94.8672 219.629 98.1172ZM203.551 94.8594H215.363C214.051 92.2031 212.113 90.875 209.551 90.875C206.754 90.875 204.754 92.2031 203.551 94.8594ZM236.832 107V87.6641H240.816V90.875C241.988 89.5781 243.051 88.6328 244.004 88.0391C244.957 87.4297 246.019 87.125 247.191 87.125C248.941 87.125 250.434 87.7031 251.668 88.8594C252.918 90.0156 253.543 91.4062 253.543 93.0312V107H249.465V94.2266C249.465 93.1797 249.121 92.3125 248.434 91.625C247.762 90.9375 246.902 90.5938 245.855 90.5938C244.496 90.5938 243.324 91.1719 242.34 92.3281C241.355 93.4688 240.863 94.8516 240.863 96.4766V107H236.832ZM257.551 97.25C257.551 94.6094 258.59 92.2656 260.668 90.2188C262.762 88.1562 265.16 87.125 267.863 87.125C270.644 87.125 273.074 88.1406 275.152 90.1719C277.23 92.1875 278.269 94.5469 278.269 97.25C278.269 99.9688 277.246 102.367 275.199 104.445C273.168 106.508 270.816 107.539 268.144 107.539C265.285 107.539 262.801 106.516 260.691 104.469C258.598 102.422 257.551 100.016 257.551 97.25ZM274.332 97.25C274.332 95.6094 273.707 94.1875 272.457 92.9844C271.207 91.7656 269.723 91.1562 268.004 91.1562C266.238 91.1562 264.715 91.7734 263.434 93.0078C262.168 94.2266 261.535 95.6875 261.535 97.3906C261.535 99.0156 262.176 100.438 263.457 101.656C264.754 102.875 266.269 103.484 268.004 103.484C269.691 103.484 271.168 102.859 272.434 101.609C273.699 100.359 274.332 98.9062 274.332 97.25ZM283.941 82.0391H288.019V87.6641H292.051V91.3906H288.019V107H283.941V91.3906H280.73V87.6172H283.941V82.0391ZM320.598 76.8594V80.9844C319.41 80.1875 318.387 79.7891 317.527 79.7891C316.809 79.7891 316.246 80.0547 315.84 80.5859C315.434 81.1172 315.23 81.8594 315.23 82.8125V87.6641H320.598V91.3906H315.23V107H311.152V91.3906H307.59V87.6641H311.152V83.0938C311.152 80.8906 311.715 79.1328 312.84 77.8203C313.98 76.5078 315.496 75.8516 317.387 75.8516C318.324 75.8516 319.394 76.1875 320.598 76.8594ZM322.848 97.25C322.848 94.6094 323.887 92.2656 325.965 90.2188C328.059 88.1562 330.457 87.125 333.16 87.125C335.941 87.125 338.371 88.1406 340.449 90.1719C342.527 92.1875 343.566 94.5469 343.566 97.25C343.566 99.9688 342.543 102.367 340.496 104.445C338.465 106.508 336.113 107.539 333.441 107.539C330.582 107.539 328.098 106.516 325.988 104.469C323.894 102.422 322.848 100.016 322.848 97.25ZM339.629 97.25C339.629 95.6094 339.004 94.1875 337.754 92.9844C336.504 91.7656 335.019 91.1562 333.301 91.1562C331.535 91.1562 330.012 91.7734 328.73 93.0078C327.465 94.2266 326.832 95.6875 326.832 97.3906C326.832 99.0156 327.473 100.438 328.754 101.656C330.051 102.875 331.566 103.484 333.301 103.484C334.988 103.484 336.465 102.859 337.73 101.609C338.996 100.359 339.629 98.9062 339.629 97.25ZM347.223 87.6641H351.301V98.5625C351.301 101.922 352.777 103.602 355.73 103.602C357.043 103.602 358.082 103.156 358.848 102.266C359.613 101.359 359.996 100.125 359.996 98.5625V87.6641H364.027V99.2188C364.027 101.641 363.238 103.633 361.66 105.195C360.082 106.758 358.066 107.539 355.613 107.539C353.113 107.539 351.09 106.758 349.543 105.195C347.996 103.633 347.223 101.594 347.223 99.0781V87.6641ZM368.223 107V87.6641H372.207V90.875C373.379 89.5781 374.441 88.6328 375.394 88.0391C376.348 87.4297 377.41 87.125 378.582 87.125C380.332 87.125 381.824 87.7031 383.059 88.8594C384.309 90.0156 384.934 91.4062 384.934 93.0312V107H380.855V94.2266C380.855 93.1797 380.512 92.3125 379.824 91.625C379.152 90.9375 378.293 90.5938 377.246 90.5938C375.887 90.5938 374.715 91.1719 373.73 92.3281C372.746 93.4688 372.254 94.8516 372.254 96.4766V107H368.223ZM406.215 76.5781H410.246V107H406.262V102.969C404.34 106.016 401.824 107.539 398.715 107.539C396.199 107.539 394.043 106.531 392.246 104.516C390.449 102.5 389.551 100.078 389.551 97.25C389.551 94.4844 390.465 92.1094 392.293 90.125C394.121 88.125 396.301 87.125 398.832 87.125C400.348 87.125 401.762 87.5469 403.074 88.3906C404.387 89.2344 405.434 90.3359 406.215 91.6953V76.5781ZM406.684 97.2969C406.684 95.5625 406.051 94.0625 404.785 92.7969C403.519 91.5156 402.012 90.875 400.262 90.875C398.449 90.875 396.91 91.5 395.644 92.75C394.394 93.9844 393.769 95.5 393.769 97.2969C393.769 99.0156 394.41 100.523 395.691 101.82C396.973 103.102 398.465 103.742 400.168 103.742C401.98 103.742 403.519 103.117 404.785 101.867C406.051 100.617 406.684 99.0938 406.684 97.2969Z" fill="#1A1E29"/>
</svg>
