<svg width="157" height="52" viewBox="0 0 157 52" fill="none" xmlns="http://www.w3.org/2000/svg">
<path d="M50.7046 10.5781H54.7827V41H50.7046V10.5781ZM59.9624 21.6641H64.0405V32.5625C64.0405 35.9219 65.5171 37.6016 68.4702 37.6016C69.7827 37.6016 70.8218 37.1562 71.5874 36.2656C72.353 35.3594 72.7358 34.125 72.7358 32.5625V21.6641H76.7671V33.2188C76.7671 35.6406 75.978 37.6328 74.3999 39.1953C72.8218 40.7578 70.8062 41.5391 68.353 41.5391C65.853 41.5391 63.8296 40.7578 62.2827 39.1953C60.7358 37.6328 59.9624 35.5938 59.9624 33.0781V21.6641ZM81.3374 41V21.6641H85.3687V24.6406C86.3218 23.4219 87.228 22.5312 88.0874 21.9688C88.9624 21.4062 89.9624 21.125 91.0874 21.125C92.5562 21.125 93.7046 21.4453 94.5327 22.0859C95.3765 22.7266 96.0874 23.75 96.6655 25.1562C97.6812 23.75 98.6577 22.7266 99.5952 22.0859C100.548 21.4453 101.65 21.125 102.9 21.125C104.431 21.125 105.751 21.7031 106.861 22.8594C107.97 24 108.525 25.3594 108.525 26.9375V41H104.47V27.9922C104.47 25.8516 103.416 24.7812 101.306 24.7812C100.103 24.7812 99.0796 25.3281 98.2358 26.4219C97.4077 27.5156 96.9937 28.8672 96.9937 30.4766V41H92.9155V28.5312C92.9155 26 91.8765 24.7344 89.7983 24.7344C88.564 24.7344 87.5171 25.25 86.6577 26.2812C85.7983 27.3125 85.3687 28.5859 85.3687 30.1016V41H81.3374ZM133.041 32.1172H116.541C116.9 34.1016 117.712 35.5547 118.978 36.4766C120.259 37.3828 121.65 37.8359 123.15 37.8359C125.462 37.8359 127.4 36.875 128.962 34.9531L131.939 37.2031C129.705 40.0938 126.712 41.5391 122.962 41.5391C120.087 41.5391 117.681 40.5547 115.744 38.5859C113.806 36.6172 112.837 34.1719 112.837 31.25C112.837 28.5156 113.814 26.1484 115.767 24.1484C117.736 22.1328 120.134 21.125 122.962 21.125C125.744 21.125 128.126 22.1484 130.111 24.1953C132.095 26.2266 133.072 28.8672 133.041 32.1172ZM116.962 28.8594H128.775C127.462 26.2031 125.525 24.875 122.962 24.875C120.166 24.875 118.166 26.2031 116.962 28.8594ZM136.978 41V21.6641H140.962V24.875C142.134 23.5781 143.197 22.6328 144.15 22.0391C145.103 21.4297 146.166 21.125 147.337 21.125C149.087 21.125 150.58 21.7031 151.814 22.8594C153.064 24.0156 153.689 25.4062 153.689 27.0312V41H149.611V28.2266C149.611 27.1797 149.267 26.3125 148.58 25.625C147.908 24.9375 147.048 24.5938 146.001 24.5938C144.642 24.5938 143.47 25.1719 142.486 26.3281C141.501 27.4688 141.009 28.8516 141.009 30.4766V41H136.978Z" fill="#F8F8F7"/>
<path d="M9.11124 23.3842C0.49907 16.4739 6.48658 5.1756 15.6729 2.57144C2.201 11.9628 8.78316 21.9898 14.9552 27.3212C12.8842 26.5625 10.8337 24.8606 9.11124 23.3842Z" fill="#E5E5E5"/>
<path d="M26.5409 1.95631C30.806 4.06834 31.9748 10.5275 31.8927 7.04159C31.8927 6.36492 31.5646 5.38067 31.4416 4.66299C32.6719 5.95481 34.1688 7.51321 34.9275 9.15362C34.7635 9.15362 34.2713 8.88705 34.3739 9.25615C40.8535 17.4992 30.1498 23.0971 28.2838 28.9411C27.8942 30.643 28.4274 33.3907 26.6434 34.334C25.3721 35.0106 16.7189 34.7031 14.6479 34.662C13.8277 33.8008 13.8277 33.8008 13.0075 32.9396C13.9507 28.531 11.6336 26.542 9.07048 23.3842C10.7929 24.8401 12.8434 26.5625 14.9145 27.3622C15.3656 26.5625 6.15874 22.2154 8.04522 12.3934C9.00896 7.4722 12.2283 5.56522 15.6526 2.57146C19.3846 1.17711 22.6859 1.01307 26.5409 1.95631Z" fill="#E5E5E5"/>
<path d="M24.9823 4.60147C30.7443 5.05259 38.2697 17.3352 28.7758 18.5655C30.3752 14.444 27.3814 10.712 23.6085 9.09211C21.9475 7.57472 22.5217 4.76552 24.9823 4.60147Z" fill="#E5E5E5"/>
<path d="M23.0343 1.17711C25.3514 1.50519 30.3547 2.7355 30.3342 4.27339C30.3137 7.26714 10.9978 6.693 9.37789 13.3777C8.55768 16.761 12.9663 19.2422 13.4584 27.0341C13.6225 29.5973 13.2944 31.6888 13.0278 32.9601C13.5815 33.5343 14.1146 34.1084 14.6682 34.6826C16.7598 34.7236 25.3924 35.0516 26.6637 34.3545C28.4477 33.3907 27.9146 30.6635 28.3042 28.9616C30.1496 23.0561 40.8738 17.6428 34.3942 9.27665C34.2507 9.0921 33.533 8.57947 33.656 8.16937C33.7175 7.96432 33.9431 7.86179 34.1481 7.80027C34.6198 8.35391 37.6955 12.1884 36.8138 17.4582C36.0756 21.9078 33.0204 24.389 32.3027 24.9426C32.6923 25.2092 33.0819 25.4962 33.451 25.7628C34.3532 24.9836 35.522 24.676 36.5062 25.0451C38.1671 25.6603 38.9874 28.0799 37.9211 29.5153C36.9984 30.7661 34.8658 31.0531 33.779 29.9869C32.9178 29.1462 33.1024 27.8133 33.1229 27.6083C32.3437 27.1572 31.585 26.7265 30.8058 26.2754C29.5345 28.1004 29.2064 29.5358 29.1654 30.5405C29.1449 31.0941 29.1654 32.0169 28.7963 33.2062C28.5707 33.9034 28.3042 34.457 28.0786 34.8056C28.2632 35.3797 28.6117 36.7331 28.1811 38.3325C27.525 40.7931 25.5155 41.9414 25.1259 42.1464C25.5565 42.4745 26.5407 43.3152 26.8688 44.7301C26.9713 45.1197 26.9918 45.4888 26.9713 45.7964C27.4019 45.5913 28.0376 45.3042 28.8373 45.0377C30.1906 44.5865 30.4777 44.6686 30.6623 44.7711C31.1134 45.0582 31.1954 45.7758 31.1134 46.2885C31.0314 46.7806 30.7443 47.1702 29.1039 48.38C26.7253 50.1229 26.1716 50.164 25.782 50.0819C25.6385 50.0614 24.8388 49.9179 24.4492 49.3027C23.9366 48.4825 24.5927 47.5803 24.3467 45.5913C24.3057 45.3452 24.2441 44.9556 23.9776 44.6071C23.711 44.279 23.1779 43.9304 22.6857 44.0329C22.1321 44.1559 22.1526 44.7096 21.5375 45.0787C20.7993 45.5093 19.897 45.2427 19.7945 45.2017C18.5027 44.7916 18.4207 43.3562 17.5184 43.3152C17.0878 43.2947 17.0263 43.6023 16.0831 43.9304C15.5294 44.1149 15.0578 44.1764 14.7297 44.2175C14.9143 44.7506 15.2014 45.7758 14.9348 47.0062C14.8733 47.3547 14.5247 49.0157 13.684 49.1387C13.5199 49.1592 12.9868 49.1797 11.9 47.6623C11.1003 46.555 8.90627 43.5203 9.99305 42.1054C10.7312 41.1417 12.6587 41.3057 13.807 41.3877C14.5452 41.4493 15.1398 41.5928 15.5294 41.7158C15.0783 41.0392 14.5452 40.0754 14.1146 38.8861C13.6635 37.5943 13.4789 36.446 13.4174 35.5848C12.9868 35.1952 12.4127 34.5595 12.0436 33.6573C11.4899 32.3245 11.736 31.2787 11.695 30.2739C11.654 29.0846 11.2029 27.4032 9.35739 25.3732C9.15233 25.8038 8.6397 26.706 7.61445 27.3622C6.97879 27.7723 6.36363 27.9569 5.95353 28.0389C5.93302 28.572 5.78949 29.4332 5.17433 29.9459C4.12857 30.8276 1.95502 30.5405 0.25309 28.7771C-0.485096 26.7881 0.478648 24.758 2.01654 24.2044C3.14432 23.8148 4.49766 24.2249 5.4409 25.2297C5.60494 25.3732 5.76898 25.5372 5.93302 25.7628C5.99454 25.8448 6.03555 25.9063 6.07656 25.9679C6.44565 25.5578 6.79424 25.1682 7.16333 24.758C7.45041 24.4505 7.71697 24.1634 7.98354 23.8558C7.34788 23.4662 6.44565 22.8306 5.62545 21.7848C3.8415 19.5087 3.71846 16.9866 3.67745 15.9408C3.51341 10.4865 7.51192 6.65199 8.55768 5.64723C9.04981 5.17561 10.8953 3.47368 13.848 2.24337C18.2976 0.541444 22.1526 1.03357 23.0343 1.17711Z" fill="#E5E5E5"/>
<path d="M26.356 35.7078C26.7251 35.6873 26.8892 36.0359 26.8072 36.3845C26.6021 37.2662 22.7471 37.3072 22.5011 36.7946C22.091 35.9949 23.5673 36.282 24.7771 36.1179C25.3718 36.0154 26.274 35.7283 26.356 35.7078Z" fill="#E5E5E5"/>
<path d="M26.2739 39.4808C26.0689 40.4855 21.9473 41.5928 22.8291 40.1984C22.9521 40.0754 24.9821 40.0549 26.2739 39.4808Z" fill="#E5E5E5"/>
<path d="M26.4997 37.9429C26.7867 37.9429 26.2126 38.312 26.1716 38.353C24.7567 39.1937 22.4602 39.0297 23.0548 38.6811C24.2646 38.7016 25.4129 38.4145 26.4997 37.9429Z" fill="#E5E5E5"/>
<path d="M32.5694 5.9753C31.052 3.86327 28.776 2.36639 26.2128 1.89477C25.8847 1.83326 25.7207 2.20235 25.8642 2.4074C25.9258 2.46892 26.0078 2.50993 26.0488 2.50993C26.4794 2.59195 28.7965 3.43266 29.9448 4.35539C30.97 5.19611 31.2776 6.28288 32.0158 6.30339C32.0978 6.30339 32.7745 6.24187 32.5694 5.9753Z" fill="#E5E5E5"/>
<path d="M28.3453 3.61721C29.8217 4.745 30.9495 6.28288 31.5851 8.06683C33.205 9.27664 31.175 4.62197 30.6214 4.3554C30.4984 4.51944 30.3753 4.70399 30.2318 4.86803C30.97 5.33965 31.4621 6.09834 31.6056 6.95955C31.6261 7.12359 31.8312 7.20562 31.9952 7.16461C32.7539 6.48793 31.257 4.66298 30.5394 4.31439C30.2113 4.12984 29.9242 4.53994 30.1498 4.82702C30.9085 5.74975 31.4006 6.87753 31.5851 8.06683C31.7902 8.00532 31.9952 7.96431 32.2003 7.90279C31.5236 6.03682 30.3343 4.39641 28.7759 3.1866C28.5094 2.87903 28.0172 3.35064 28.3453 3.61721Z" fill="#E5E5E5"/>
<path d="M15.7959 16.7815C17.1698 16.72 16.3291 18.1759 16.6366 18.7295C17.3338 20.0623 20.6557 21.4977 23.5059 19.7958C26.0485 18.2784 24.08 17.0686 25.4129 16.843C26.4791 16.679 26.9302 18.545 27.4429 19.2626C26.8687 19.0166 26.8687 19.0166 26.2946 18.75C23.8955 23.0356 17.4568 23.1586 15.2013 18.75C12.6381 20.493 14.4836 18.7705 14.6886 18.3809C14.8732 18.0118 14.9347 16.802 15.7959 16.7815Z" fill="#E5E5E5"/>
<path d="M25.0027 12.783C27.7914 12.3114 27.6274 16.9456 25.4744 14.3619C23.5469 16.2894 23.1983 13.0701 25.0027 12.783Z" fill="#E5E5E5"/>
<path d="M15.3244 12.783C17.8466 12.3934 18.0926 16.3304 15.7345 14.4439C15.1399 14.3824 14.8938 15.3257 14.2992 15.1411C13.52 14.9566 14.1761 12.9471 15.3244 12.783Z" fill="#E5E5E5"/>
<path d="M9.37796 23.4457C7.22491 21.4977 5.74854 19.6933 5.46147 16.638C4.82581 9.70725 9.76756 5.72924 15.673 3.45317C12.3717 6.32389 9.27543 8.14885 8.3732 12.865C6.56875 22.2769 15.4065 26.46 14.9759 27.2392C14.8323 27.3212 14.3197 26.9931 14.0121 26.8086C12.3717 25.8653 10.7928 24.7375 9.37796 23.4457Z" fill="#C4AA27"/>
<path d="M26.1307 2.85858C27.1764 3.51474 28.3657 4.47849 29.1244 5.44223C30.7649 7.49275 31.2775 10.343 31.2775 7.73881C31.2775 7.08265 30.9699 6.13941 30.8469 5.46274C32.0362 6.71355 33.4715 8.21043 34.1892 9.76882C34.1482 9.74832 33.7176 9.6663 33.6971 9.6868C33.6356 9.72781 33.6561 9.78933 33.6561 9.87135C33.6561 10.1174 35.276 11.5528 35.5015 14.2595C36.0757 21.2927 28.9194 23.9174 27.8121 28.7771C27.443 30.4175 27.9556 33.0422 26.2332 33.9649C25.0029 34.6211 16.6983 34.3135 14.7093 34.2725C13.9301 33.4523 13.9301 33.4523 13.1304 32.6116C14.0326 28.367 11.8181 26.46 9.35746 23.4253C10.7723 24.7171 12.3512 25.8449 14.0121 26.8086C14.3197 26.9932 14.8323 27.3212 14.9759 27.2392C15.4065 26.4805 6.56875 22.2975 8.37321 12.8651C9.27544 8.14891 12.3717 6.32395 15.673 3.45323C19.2409 2.12039 22.4192 1.95635 26.1307 2.85858Z" fill="#FED428"/>
<path d="M24.6337 5.40121C26.9713 5.23717 29.3704 8.06688 30.7442 9.74831C31.1543 10.548 31.872 11.4092 32.0565 12.2089C33.7175 15.7768 32.0976 18.1349 28.2836 18.8116C29.8215 14.8541 26.9508 11.2657 23.3213 9.7073C21.7014 8.25143 22.2551 5.56525 24.6337 5.40121Z" fill="#EDDC81"/>
<path d="M26.1304 2.8585C22.419 1.95627 19.2202 2.09981 15.6728 3.47365C9.76731 5.74973 4.82556 9.70723 5.46122 16.6585C5.74829 19.6932 7.22467 21.5182 9.37771 23.4662C11.8383 26.501 14.0324 28.3874 13.1507 32.6525C13.9299 33.4727 13.9299 33.4727 14.7296 34.3134C16.7391 34.3544 25.0232 34.662 26.2535 34.0058C27.9759 33.0831 27.4633 30.4585 27.8324 28.818C28.9396 23.9583 36.0959 21.3337 35.5218 14.3004C35.2962 11.6142 33.6763 10.1583 33.6763 9.91228C33.6763 9.83026 33.6558 9.74823 33.7173 9.72773C33.7379 9.70722 34.1685 9.78925 34.2095 9.80975C34.8861 10.0968 36.1575 13.4597 36.2805 14.9976C36.6701 19.5087 34.8451 22.0923 31.6668 24.9836C32.5691 25.5372 32.5691 25.5372 33.4713 26.0909C36.26 23.7123 39.0487 27.2391 37.6543 29.3512C36.5266 31.0736 32.9997 30.4995 33.5123 27.5877C32.1179 26.8085 32.1179 26.8085 30.7031 26.0088C30.6006 26.0293 29.6163 27.4032 29.5138 27.5877C28.1809 30.0073 28.8371 32.3244 27.7503 34.498C27.5248 35.6668 29.1037 39.9318 24.367 42.1054C27.1147 43.9509 26.561 46.1244 26.7866 46.2064C27.3812 46.1039 30.1289 44.9556 30.3135 44.9761C30.7851 45.0171 31.1132 45.7348 30.8876 46.3295C30.6416 46.9856 26.52 49.6923 26.233 49.7538C25.7408 49.8563 25.0026 49.5488 24.7361 49.0977C23.9569 47.8058 25.8844 45.2222 23.6903 43.9098C21.4553 42.5565 22.6035 45.2632 20.1634 44.8326C18.8511 44.607 18.3795 42.9666 18.2359 42.9051C17.4978 42.618 16.6775 43.4177 16.1649 43.6023C15.5703 43.8073 14.34 43.9509 14.2784 44.0944C14.668 45.0376 15.1397 49.3232 13.1712 48.7491C12.8226 48.6465 10.1569 43.8688 10.1364 43.4177C10.0544 40.67 15.0987 42.495 16.5955 42.2694C14.2579 39.3987 14.422 39.0501 13.8273 35.4412C9.99287 32.0784 15.1807 31.4837 9.41872 24.8811C8.41397 26.1114 7.38871 27.8748 5.62526 27.9158C5.7688 31.0531 1.70878 30.1304 0.786044 28.7565C-0.0341631 27.5467 0.396445 24.3479 2.89808 24.5735C3.22616 24.594 4.86657 25.2091 5.13314 25.4142C5.60476 25.7833 5.78931 26.583 6.05587 26.5625C7.18366 25.3117 7.18366 25.3117 8.33195 24.0608C8.35245 23.5072 5.21516 22.605 4.41546 18.0733C3.49273 12.9265 5.50223 9.27662 9.29569 5.97528C13.1302 2.63294 17.7233 1.03354 22.8291 1.58718C23.4853 1.62819 26.8891 2.26385 26.1304 2.8585Z" fill="#0C0B07"/>
<path d="M25.9458 35.2773C26.2944 35.2568 26.4585 35.5848 26.3764 35.9334C26.1714 36.7741 22.4805 36.8152 22.2344 36.323C21.8448 35.5643 23.2597 35.8309 24.4284 35.6669C25.0026 35.5849 25.8638 35.2978 25.9458 35.2773Z" fill="#D1D3CD"/>
<path d="M25.8638 38.9066C25.6588 39.8909 22.583 40.4855 22.4395 40.0959C22.4395 40.0754 22.542 39.6038 22.5625 39.6038C22.6855 39.4808 24.6335 39.4603 25.8638 38.9066Z" fill="#F3EFDB"/>
<path d="M26.0893 37.4302C26.3558 37.4302 25.8227 37.7788 25.7817 37.8198C24.4283 38.6195 22.2138 38.476 22.7879 38.1274C23.9362 38.1684 25.0435 37.8813 26.0893 37.4302Z" fill="#FDFCFA"/>
<path d="M31.9129 6.71348C30.457 4.68347 28.263 3.2481 25.8023 2.79699C25.4127 2.71497 25.2487 3.30962 25.6383 3.39164C27.9349 3.82225 30.0264 5.13458 31.3797 7.04156C31.6053 7.34914 32.1384 7.04156 31.9129 6.71348Z" fill="#FED428"/>
<path d="M27.853 4.45793C29.2679 5.5447 30.3547 7.02107 30.9698 8.723C31.1134 9.1126 31.626 8.94856 31.5645 8.55896C31.3799 7.30815 30.8468 6.13935 30.0471 5.1551C29.9241 5.31915 29.801 5.48319 29.678 5.64723C30.3957 6.09834 30.8673 6.83653 30.9903 7.65674C31.0108 7.82078 31.2159 7.9028 31.3594 7.86179C31.544 7.82078 31.6055 7.65673 31.5645 7.49269C31.4209 6.50845 30.8058 5.62672 29.9651 5.11409C29.6575 4.92955 29.3704 5.33965 29.596 5.60622C30.3342 6.48794 30.8058 7.57471 30.9698 8.723C31.1749 8.66149 31.3594 8.62048 31.5645 8.55896C30.9083 6.77501 29.7805 5.19611 28.2836 4.02732C28.1606 3.92479 27.9761 3.90429 27.853 4.02732C27.73 4.12985 27.7095 4.3554 27.853 4.45793Z" fill="#FED428"/>
<path d="M15.7957 17.1096C17.108 17.0481 16.3083 18.4425 16.5954 18.9756C17.2721 20.2469 20.4504 21.6413 23.1981 20.0009C25.6382 18.545 23.7517 17.3762 25.023 17.1711C26.0483 17.0071 26.4789 18.8116 26.971 19.4882C26.4174 19.2422 26.4174 19.2422 25.8637 18.9961C23.5672 23.1176 17.3746 23.2407 15.201 18.9961C12.7404 20.6775 14.5039 19.0166 14.7089 18.6475C14.914 18.2784 14.9755 17.1301 15.7957 17.1096Z" fill="#0C0C0C"/>
<path d="M24.6542 13.2547C27.3404 12.8036 27.1764 17.2532 25.1053 14.7721C23.2394 16.638 22.9113 13.5417 24.6542 13.2547Z" fill="#0C0C0C"/>
<path d="M15.3446 13.2547C17.7642 12.8856 18.0102 16.6586 15.7342 14.8541C15.16 14.7926 14.9345 15.6948 14.3603 15.5308C13.6221 15.3462 14.2373 13.4188 15.3446 13.2547Z" fill="#0C0C0C"/>
</svg>
