<svg width="210" height="74" viewBox="0 0 210 74" fill="none" xmlns="http://www.w3.org/2000/svg">
<path d="M13.3532 34.7004C10.1481 31.8005 7.95023 29.1142 7.52288 24.5659C6.57659 14.2484 13.9332 8.32643 22.7245 4.93811C17.8099 9.21167 13.2006 11.9284 11.8575 18.9493C9.17125 32.9604 22.3277 39.1876 21.6867 40.3476C21.473 40.4697 20.7099 39.9813 20.252 39.7065C17.8099 38.3024 15.4595 36.6235 13.3532 34.7004Z" fill="#C4AA27"/>
<path d="M38.2926 4.05281C39.8494 5.02963 41.6199 6.46432 42.7493 7.89902C45.1913 10.9516 45.9545 15.1946 45.9545 11.3179C45.9545 10.341 45.4966 8.93688 45.3134 7.92954C47.0839 9.79159 49.2207 12.0199 50.2891 14.3399C50.228 14.3094 49.587 14.1873 49.5565 14.2178C49.4649 14.2788 49.4954 14.3704 49.4954 14.4925C49.4954 14.8588 51.9069 16.9956 52.2427 21.0249C53.0974 31.4952 42.444 35.4024 40.7957 42.6369C40.2462 45.079 41.0094 48.9862 38.4452 50.3599C36.6137 51.3367 24.2509 50.8788 21.2899 50.8177C20.13 49.5967 20.13 49.5967 18.9395 48.3452C20.2826 42.0264 16.9859 39.1876 13.3228 34.6698C15.4291 36.5929 17.7795 38.2718 20.2521 39.7065C20.71 39.9812 21.4731 40.4696 21.6868 40.3475C22.3278 39.2181 9.17136 32.9909 11.8576 18.9492C13.2007 11.9284 17.81 9.21161 22.7246 4.93805C28.0361 2.9539 32.7675 2.7097 38.2926 4.05281Z" fill="#FED428"/>
<path d="M36.0643 7.83793C39.5442 7.59372 43.1157 11.8062 45.1609 14.3093C45.7714 15.4998 46.8398 16.7819 47.1145 17.9724C49.5871 23.2838 47.1756 26.7942 41.4978 27.8015C43.7872 21.9101 39.5137 16.5682 34.1107 14.2483C31.6992 12.081 32.5234 8.08213 36.0643 7.83793Z" fill="#EDDC81"/>
<path d="M38.2926 4.05285C32.7675 2.70973 28.0055 2.92341 22.7246 4.96861C13.9333 8.35693 6.57671 14.2483 7.523 24.5964C7.95035 29.1142 10.1482 31.831 13.3533 34.7309C17.0164 39.2486 20.2826 42.057 18.97 48.4063C20.13 49.6273 20.13 49.6273 21.3205 50.8788C24.312 50.9399 36.6442 51.3978 38.4758 50.4209C41.0399 49.0473 40.2768 45.14 40.8262 42.698C42.4746 35.4635 53.128 31.5562 52.2732 21.086C51.9375 17.0872 49.526 14.9199 49.526 14.5536C49.526 14.4315 49.4954 14.3094 49.587 14.2789C49.6175 14.2483 50.2586 14.3704 50.3196 14.401C51.327 14.8283 53.2195 19.8345 53.4027 22.1239C53.9827 28.8395 51.2659 32.6857 46.5345 36.9898C47.8776 37.8139 47.8776 37.8139 49.2207 38.6381C53.3722 35.0972 57.5236 40.3476 55.4479 43.4917C53.769 46.0558 48.5186 45.2011 49.2817 40.8665C47.206 39.7065 47.206 39.7065 45.0998 38.516C44.9471 38.5466 43.4819 40.5918 43.3293 40.8665C41.3451 44.4685 42.322 47.9179 40.7041 51.1535C40.3683 52.8935 42.7188 59.2428 35.6674 62.4785C39.7578 65.2258 38.9336 68.4615 39.2694 68.5836C40.1547 68.4309 44.2451 66.7215 44.5198 66.752C45.2219 66.8131 45.7103 67.8815 45.3745 68.7667C45.0082 69.7435 38.8726 73.7729 38.4452 73.8644C37.7126 74.0171 36.6137 73.5592 36.2169 72.8876C35.0569 70.9645 37.9263 67.1183 34.6601 65.1647C31.3328 63.15 33.0422 67.1794 29.4097 66.5384C27.4561 66.2026 26.754 63.7605 26.5403 63.669C25.4414 63.2416 24.2204 64.4321 23.4573 64.7068C22.572 65.0121 20.7405 65.2258 20.6489 65.4394C21.2289 66.8436 21.931 73.2234 19.0005 72.3687C18.4816 72.2161 14.5133 65.1037 14.4828 64.4321C14.3607 60.3417 21.8699 63.0585 24.0983 62.7227C20.6184 58.4491 20.8626 57.9302 19.9774 52.5577C14.2691 47.5516 21.992 46.6663 13.4144 36.8371C11.9187 38.6687 10.3924 41.2938 7.7672 41.3549C7.98088 46.0253 1.93685 44.6516 0.563206 42.6064C-0.65781 40.8054 -0.0167765 36.0435 3.70732 36.3793C4.19573 36.4098 6.63776 37.3255 7.03459 37.6308C7.73668 38.1803 8.0114 39.3707 8.40824 39.3402C10.0871 37.4782 10.0871 37.4782 11.7966 35.6161C11.8271 34.7919 7.15669 33.4488 5.9662 26.7027C4.59256 19.0408 7.58405 13.6073 13.2312 8.69271C18.9395 3.71707 25.7772 1.33609 33.378 2.16027C34.3548 2.22132 39.422 3.16761 38.2926 4.05285Z" fill="#1A1E29"/>
<path d="M38.0178 52.3135C38.5367 52.283 38.7809 52.7714 38.6588 53.2903C38.3536 54.5418 32.859 54.6029 32.4927 53.8703C31.9127 52.7409 34.019 53.1377 35.7589 52.8935C36.6136 52.7714 37.8957 52.344 38.0178 52.3135Z" fill="#D1D3CD"/>
<path d="M37.8958 57.7166C37.5906 59.1818 33.0118 60.067 32.7981 59.487C32.7981 59.4565 32.9507 58.7544 32.9813 58.7544C33.1644 58.5713 36.0643 58.5407 37.8958 57.7166Z" fill="#F3EFDB"/>
<path d="M38.2317 55.5187C38.6285 55.5187 37.8348 56.0376 37.7738 56.0987C35.7591 57.2892 32.4624 57.0755 33.3171 56.5565C35.0265 56.6176 36.6749 56.1902 38.2317 55.5187Z" fill="#FDFCFA"/>
<path d="M46.9007 9.79159C44.7334 6.76958 41.4672 4.6328 37.8041 3.96124C37.2241 3.83913 36.9799 4.72437 37.5599 4.84647C40.9787 5.48751 44.0923 7.44113 46.107 10.28C46.4428 10.7379 47.2365 10.28 46.9007 9.79159Z" fill="#FED428"/>
<path d="M40.8568 6.43384C42.963 8.05168 44.5809 10.2495 45.4967 12.7831C45.7103 13.3631 46.4735 13.1189 46.3819 12.5389C46.1072 10.6769 45.3135 8.93692 44.123 7.4717C43.9399 7.7159 43.7567 7.96011 43.5736 8.20431C44.6419 8.87587 45.344 9.97478 45.5272 11.1958C45.5577 11.44 45.863 11.5621 46.0766 11.5011C46.3514 11.44 46.4429 11.1958 46.3819 10.9516C46.1682 9.48638 45.2525 8.17378 44.0009 7.41065C43.543 7.13592 43.1157 7.74643 43.4515 8.14326C44.5504 9.45585 45.2525 11.0737 45.4967 12.7831C45.8019 12.6915 46.0766 12.6305 46.3819 12.5389C45.4051 9.88321 43.7262 7.53275 41.4978 5.7928C41.3147 5.64018 41.0399 5.60965 40.8568 5.7928C40.6736 5.94543 40.6431 6.28121 40.8568 6.43384Z" fill="#FED428"/>
<path d="M22.9077 25.268C24.8614 25.1764 23.6709 27.2521 24.0982 28.0458C25.1056 29.9383 29.837 32.0141 33.9274 29.572C37.5599 27.4047 34.7516 25.6648 36.6442 25.3595C38.1704 25.1153 38.8115 27.8016 39.5441 28.8089C38.7199 28.4426 38.7199 28.4426 37.8957 28.0763C34.4769 34.2119 25.2582 34.395 22.0225 28.0763C18.3594 30.5794 20.9846 28.1068 21.2899 27.5574C21.5951 27.0079 21.6867 25.2985 22.9077 25.268Z" fill="#1A1E29"/>
<path d="M36.0948 19.5292C40.0937 18.8576 39.8495 25.4817 36.7664 21.7881C33.9886 24.5659 33.5002 19.9566 36.0948 19.5292Z" fill="#1A1E29"/>
<path d="M22.2362 19.5292C25.8382 18.9797 26.2045 24.5964 22.8162 21.9102C21.9614 21.8186 21.6257 23.1617 20.7709 22.9175C19.672 22.6428 20.5878 19.7734 22.2362 19.5292Z" fill="#1A1E29"/>
<path d="M69.4062 14.4375H74.8438V55H69.4062V14.4375ZM81.75 29.2188H87.1875V43.75C87.1875 48.2292 89.1562 50.4688 93.0938 50.4688C94.8438 50.4688 96.2292 49.875 97.25 48.6875C98.2708 47.4792 98.7812 45.8333 98.7812 43.75V29.2188H104.156V44.625C104.156 47.8542 103.104 50.5104 101 52.5938C98.8958 54.6771 96.2083 55.7188 92.9375 55.7188C89.6042 55.7188 86.9062 54.6771 84.8438 52.5938C82.7812 50.5104 81.75 47.7917 81.75 44.4375V29.2188ZM110.25 55V29.2188H115.625V33.1875C116.896 31.5625 118.104 30.375 119.25 29.625C120.417 28.875 121.75 28.5 123.25 28.5C125.208 28.5 126.74 28.9271 127.844 29.7812C128.969 30.6354 129.917 32 130.688 33.875C132.042 32 133.344 30.6354 134.594 29.7812C135.865 28.9271 137.333 28.5 139 28.5C141.042 28.5 142.802 29.2708 144.281 30.8125C145.76 32.3333 146.5 34.1458 146.5 36.25V55H141.094V37.6562C141.094 34.8021 139.688 33.375 136.875 33.375C135.271 33.375 133.906 34.1042 132.781 35.5625C131.677 37.0208 131.125 38.8229 131.125 40.9688V55H125.688V38.375C125.688 35 124.302 33.3125 121.531 33.3125C119.885 33.3125 118.49 34 117.344 35.375C116.198 36.75 115.625 38.4479 115.625 40.4688V55H110.25ZM179.188 43.1562H157.188C157.667 45.8021 158.75 47.7396 160.438 48.9688C162.146 50.1771 164 50.7812 166 50.7812C169.083 50.7812 171.667 49.5 173.75 46.9375L177.719 49.9375C174.74 53.7917 170.75 55.7188 165.75 55.7188C161.917 55.7188 158.708 54.4062 156.125 51.7812C153.542 49.1562 152.25 45.8958 152.25 42C152.25 38.3542 153.552 35.1979 156.156 32.5312C158.781 29.8438 161.979 28.5 165.75 28.5C169.458 28.5 172.635 29.8646 175.281 32.5938C177.927 35.3021 179.229 38.8229 179.188 43.1562ZM157.75 38.8125H173.5C171.75 35.2708 169.167 33.5 165.75 33.5C162.021 33.5 159.354 35.2708 157.75 38.8125ZM184.438 55V29.2188H189.75V33.5C191.312 31.7708 192.729 30.5104 194 29.7188C195.271 28.9062 196.688 28.5 198.25 28.5C200.583 28.5 202.573 29.2708 204.219 30.8125C205.885 32.3542 206.719 34.2083 206.719 36.375V55H201.281V37.9688C201.281 36.5729 200.823 35.4167 199.906 34.5C199.01 33.5833 197.865 33.125 196.469 33.125C194.656 33.125 193.094 33.8958 191.781 35.4375C190.469 36.9583 189.812 38.8021 189.812 40.9688V55H184.438Z" fill="#1A1E29"/>
</svg>
