<svg width="30" height="30" viewBox="0 0 30 30" fill="none" xmlns="http://www.w3.org/2000/svg">
<g id="List">
<path id="Vector" fill-rule="evenodd" clip-rule="evenodd" d="M4.90509 22.5C4.90509 22.2514 5.00301 22.0129 5.17732 21.8371C5.35162 21.6613 5.58803 21.5625 5.83453 21.5625H24.4234C24.6699 21.5625 24.9063 21.6613 25.0806 21.8371C25.2549 22.0129 25.3528 22.2514 25.3528 22.5C25.3528 22.7486 25.2549 22.9871 25.0806 23.1629C24.9063 23.3387 24.6699 23.4375 24.4234 23.4375H5.83453C5.58803 23.4375 5.35162 23.3387 5.17732 23.1629C5.00301 22.9871 4.90509 22.7486 4.90509 22.5ZM4.90509 15C4.90509 14.7514 5.00301 14.5129 5.17732 14.3371C5.35162 14.1613 5.58803 14.0625 5.83453 14.0625H24.4234C24.6699 14.0625 24.9063 14.1613 25.0806 14.3371C25.2549 14.5129 25.3528 14.7514 25.3528 15C25.3528 15.2486 25.2549 15.4871 25.0806 15.6629C24.9063 15.8387 24.6699 15.9375 24.4234 15.9375H5.83453C5.58803 15.9375 5.35162 15.8387 5.17732 15.6629C5.00301 15.4871 4.90509 15.2486 4.90509 15ZM4.90509 7.5C4.90509 7.25136 5.00301 7.0129 5.17732 6.83709C5.35162 6.66127 5.58803 6.5625 5.83453 6.5625H24.4234C24.6699 6.5625 24.9063 6.66127 25.0806 6.83709C25.2549 7.0129 25.3528 7.25136 25.3528 7.5C25.3528 7.74864 25.2549 7.9871 25.0806 8.16291C24.9063 8.33873 24.6699 8.4375 24.4234 8.4375H5.83453C5.58803 8.4375 5.35162 8.33873 5.17732 8.16291C5.00301 7.9871 4.90509 7.74864 4.90509 7.5Z" fill="#F8F8F7"/>
</g>
</svg>
