<svg width="28" height="40" viewBox="0 0 28 40" fill="none" xmlns="http://www.w3.org/2000/svg">
<path fill-rule="evenodd" clip-rule="evenodd" d="M27.8418 16.1678C27.892 16.2209 27.9317 16.2839 27.9589 16.3533C27.986 16.4228 28 16.4972 28 16.5723C28 16.6474 27.986 16.7219 27.9589 16.7913C27.9317 16.8607 27.892 16.9237 27.8418 16.9768L21.381 23.8322C21.331 23.8854 21.2716 23.9276 21.2062 23.9564C21.1408 23.9852 21.0707 24 20.9999 24C20.929 24 20.8589 23.9852 20.7935 23.9564C20.7281 23.9276 20.6687 23.8854 20.6187 23.8322L14.1579 16.9768C14.0568 16.8695 14 16.724 14 16.5723C14 16.4206 14.0568 16.2751 14.1579 16.1678C14.259 16.0606 14.3961 16.0003 14.5391 16.0003C14.6821 16.0003 14.8192 16.0606 14.9203 16.1678L20.9999 22.6199L27.0795 16.1678C27.1295 16.1146 27.1889 16.0724 27.2543 16.0436C27.3197 16.0148 27.3898 16 27.4606 16C27.5315 16 27.6016 16.0148 27.667 16.0436C27.7324 16.0724 27.7918 16.1146 27.8418 16.1678Z" fill="#1A1E29"/>
<line x1="0.75" y1="40" x2="0.749998" y2="1.09278e-08" stroke="#A8A8A8" stroke-width="0.5"/>
</svg>
