<svg width="19" height="19" viewBox="0 0 19 19" fill="none" xmlns="http://www.w3.org/2000/svg">
<path d="M9.375 9.375C10.6182 9.375 11.8105 8.88114 12.6896 8.00206C13.5686 7.12299 14.0625 5.9307 14.0625 4.6875C14.0625 3.4443 13.5686 2.25201 12.6896 1.37294C11.8105 0.49386 10.6182 0 9.375 0C8.1318 0 6.93951 0.49386 6.06044 1.37294C5.18136 2.25201 4.6875 3.4443 4.6875 4.6875C4.6875 5.9307 5.18136 7.12299 6.06044 8.00206C6.93951 8.88114 8.1318 9.375 9.375 9.375ZM12.5 4.6875C12.5 5.5163 12.1708 6.31116 11.5847 6.89721C10.9987 7.48326 10.2038 7.8125 9.375 7.8125C8.5462 7.8125 7.75134 7.48326 7.16529 6.89721C6.57924 6.31116 6.25 5.5163 6.25 4.6875C6.25 3.8587 6.57924 3.06384 7.16529 2.47779C7.75134 1.89174 8.5462 1.5625 9.375 1.5625C10.2038 1.5625 10.9987 1.89174 11.5847 2.47779C12.1708 3.06384 12.5 3.8587 12.5 4.6875ZM18.75 17.1875C18.75 18.75 17.1875 18.75 17.1875 18.75H1.5625C1.5625 18.75 0 18.75 0 17.1875C0 15.625 1.5625 10.9375 9.375 10.9375C17.1875 10.9375 18.75 15.625 18.75 17.1875ZM17.1875 17.1812C17.1859 16.7969 16.9469 15.6406 15.8875 14.5812C14.8688 13.5625 12.9516 12.5 9.375 12.5C5.79844 12.5 3.88125 13.5625 2.8625 14.5812C1.80313 15.6406 1.56562 16.7969 1.5625 17.1812H17.1875Z" fill="#F8F8F7"/>
</svg>
